<?xml version="1.0" encoding="utf-8"?>
<!-- Generator: Adobe Illustrator 19.1.0, SVG Export Plug-In . SVG Version: 6.00 Build 0)  -->
<svg version="1.1" id="Layer_1" xmlns="http://www.w3.org/2000/svg" xmlns:xlink="http://www.w3.org/1999/xlink" x="0px" y="0px"
	 width="24px" height="24px" viewBox="0 0 24 24" style="enable-background:new 0 0 24 24;" xml:space="preserve">
<style type="text/css">
	.st0{fill:#FF4444;}
	.st1{fill:#FFFFFF;}
</style>
<path class="st0" d="M12,0L12,0c6.6,0,12,5.4,12,12l0,0c0,6.6-5.4,12-12,12l0,0C5.4,24,0,18.6,0,12l0,0C0,5.4,5.4,0,12,0z"/>
<path class="st1" d="M10.9,13.2v-2.9l2.8,1.4L10.9,13.2z M17,9.8c0,0-0.1-0.7-0.4-1c-0.4-0.4-0.8-0.4-1-0.4C14.2,8.2,12,8.2,12,8.2
	h0c0,0-2.2,0-3.6,0.1c-0.2,0-0.6,0-1,0.4C7.1,9.1,7,9.8,7,9.8s-0.1,0.8-0.1,1.7v0.8c0,0.8,0.1,1.7,0.1,1.7s0.1,0.7,0.4,1
	c0.4,0.4,0.9,0.4,1.1,0.4c0.8,0.1,3.5,0.1,3.5,0.1s2.2,0,3.6-0.1c0.2,0,0.6,0,1-0.4c0.3-0.3,0.4-1,0.4-1s0.1-0.8,0.1-1.7v-0.8
	C17.1,10.6,17,9.8,17,9.8z"/>
</svg>
