<?xml version="1.0" encoding="utf-8"?>
<!-- Generator: Adobe Illustrator 19.1.0, SVG Export Plug-In . SVG Version: 6.00 Build 0)  -->
<svg version="1.1" id="Layer_1" xmlns="http://www.w3.org/2000/svg" xmlns:xlink="http://www.w3.org/1999/xlink" x="0px" y="0px"
	 width="24px" height="24px" viewBox="0 0 24 24" style="enable-background:new 0 0 24 24;" xml:space="preserve">
<style type="text/css">
	.st0{fill:#4C76A4;}
	.st1{fill:#FFFFFF;}
</style>
<path class="st0" d="M12,0L12,0c6.6,0,12,5.4,12,12l0,0c0,6.6-5.4,12-12,12l0,0C5.4,24,0,18.6,0,12l0,0C0,5.4,5.4,0,12,0z"/>
<path class="st1" d="M11.5,15.1h0.7c0,0,0.2,0,0.3-0.1c0.1-0.1,0.1-0.3,0.1-0.3s0-1,0.4-1.1c0.4-0.1,0.9,0.9,1.5,1.3
	c0.4,0.3,0.7,0.2,0.7,0.2l1.5,0c0,0,0.8-0.1,0.4-0.7c0-0.1-0.2-0.5-1.1-1.4c-0.9-0.9-0.8-0.8,0.3-2.4c0.7-1,0.9-1.6,0.9-1.8
	c-0.1-0.2-0.6-0.2-0.6-0.2l-1.6,0c0,0-0.1,0-0.2,0c-0.1,0.1-0.1,0.2-0.1,0.2s-0.3,0.8-0.6,1.4c-0.7,1.4-1,1.4-1.1,1.4
	c-0.3-0.2-0.2-0.8-0.2-1.2c0-1.3,0.2-1.9-0.4-2c-0.2,0-0.3-0.1-0.8-0.1c-0.6,0-1.1,0-1.4,0.2C9.9,8.5,9.7,8.7,9.8,8.7
	c0.1,0,0.4,0.1,0.5,0.3c0.2,0.3,0.2,0.8,0.2,0.8s0.1,1.6-0.2,1.8c-0.2,0.1-0.5-0.1-1.2-1.4C8.7,9.5,8.5,8.8,8.5,8.8s0-0.1-0.1-0.2
	C8.2,8.6,8.1,8.5,8.1,8.5l-1.6,0c0,0-0.2,0-0.3,0.1C6.1,8.8,6.2,9,6.2,9s1.2,3.1,2.6,4.7C10.1,15.2,11.5,15.1,11.5,15.1"/>
</svg>
