<?xml version="1.0" encoding="utf-8"?>
<!-- Generator: Adobe Illustrator 19.1.0, SVG Export Plug-In . SVG Version: 6.00 Build 0)  -->
<svg version="1.1" id="Layer_1" xmlns="http://www.w3.org/2000/svg" xmlns:xlink="http://www.w3.org/1999/xlink" x="0px" y="0px"
	 width="24px" height="24px" viewBox="0 0 24 24" style="enable-background:new 0 0 24 24;" xml:space="preserve">
<style type="text/css">
	.st0{fill:#55ACEE;}
	.st1{fill:#FFFFFF;}
</style>
<path class="st0" d="M12,0L12,0c6.6,0,12,5.4,12,12l0,0c0,6.6-5.4,12-12,12l0,0C5.4,24,0,18.6,0,12l0,0C0,5.4,5.4,0,12,0z"/>
<path class="st1" d="M17.8,8.6C17.4,8.8,17,8.9,16.5,9c0.5-0.3,0.8-0.7,1-1.2c-0.4,0.3-0.9,0.4-1.4,0.5c-0.8-0.9-2.3-1-3.2-0.1
	c-0.6,0.6-0.8,1.4-0.7,2.2C10.4,10.2,8.8,9.4,7.6,8C7,9,7.3,10.3,8.3,11c-0.4,0-0.7-0.1-1-0.3v0c0,1.1,0.8,2,1.8,2.2
	c-0.3,0.1-0.7,0.1-1,0c0.3,0.9,1.1,1.5,2.1,1.6c-0.9,0.7-2.1,1.1-3.3,0.9c1,0.7,2.2,1,3.4,1c4.1,0,6.4-3.4,6.4-6.4
	c0-0.1,0-0.2,0-0.3C17.1,9.4,17.5,9.1,17.8,8.6"/>
</svg>
