<?xml version="1.0" encoding="utf-8"?>
<!-- Generator: Adobe Illustrator 19.1.0, SVG Export Plug-In . SVG Version: 6.00 Build 0)  -->
<svg version="1.1" id="Layer_1" xmlns="http://www.w3.org/2000/svg" xmlns:xlink="http://www.w3.org/1999/xlink" x="0px" y="0px"
	 width="24px" height="24px" viewBox="0 0 24 24" style="enable-background:new 0 0 24 24;" xml:space="preserve">
<style type="text/css">
	.st0{fill:#125789;}
	.st1{fill:#FFFFFF;}
</style>
<path class="st0" d="M12,0L12,0c6.6,0,12,5.4,12,12l0,0c0,6.6-5.4,12-12,12l0,0C5.4,24,0,18.6,0,12l0,0C0,5.4,5.4,0,12,0z"/>
<path class="st1" d="M15.5,10c0,0.1-0.1,0.2-0.2,0.2H14c-0.1,0-0.2-0.1-0.2-0.2l0,0V8.8c0-0.1,0.1-0.2,0.2-0.2h1.2
	c0.1,0,0.2,0.1,0.2,0.2V10z M15.5,15.2c0,0.1-0.1,0.2-0.2,0.2H8.8c-0.1,0-0.2-0.1-0.2-0.2l0,0v-4h0.8c-0.4,1.4,0.4,3,1.9,3.4
	c0.2,0.1,0.5,0.1,0.7,0.1c1.5,0,2.7-1.2,2.7-2.7c0-0.3,0-0.5-0.1-0.7h0.8V15.2z M12,10.3c1,0,1.7,0.8,1.7,1.7c0,1-0.8,1.7-1.7,1.7
	c0,0,0,0,0,0c-1,0-1.7-0.8-1.7-1.7C10.3,11,11,10.3,12,10.3z M15.2,7.5H8.8c-0.7,0-1.2,0.6-1.2,1.2v6.4c0,0.7,0.6,1.2,1.2,1.2h6.4
	c0.7,0,1.2-0.6,1.2-1.2V8.8C16.5,8.1,15.9,7.5,15.2,7.5z"/>
</svg>
